<?xml version="1.0" encoding="UTF-8" standalone="no"?>
<!-- Created with Inkscape (http://www.inkscape.org/) -->

<svg
   width="24"
   height="24"
   viewBox="0 0 24 24"
   version="1.1"
   id="svg1"
   xmlns="http://www.w3.org/2000/svg"
   xmlns:svg="http://www.w3.org/2000/svg"
   xmlns:rdf="http://www.w3.org/1999/02/22-rdf-syntax-ns#"
   xmlns:cc="http://creativecommons.org/ns#"
   xmlns:dc="http://purl.org/dc/elements/1.1/">
  <defs
     id="defs1" />
  <g
     id="layer1">
    <rect
       style="fill:none;fill-opacity:1;fill-rule:evenodd;stroke:#000000;stroke-width:2;stroke-linecap:square;stroke-linejoin:miter;stroke-dasharray:none;stroke-opacity:1;paint-order:normal"
       id="frame"
       width="14"
       height="18"
       x="5"
       y="3"
       rx="1"
       ry="1" />
    <path
       id="path1"
       style="fill:#000000;fill-opacity:1;fill-rule:evenodd;stroke:#000000;stroke-width:0.999995;stroke-linecap:square;stroke-linejoin:round;stroke-dasharray:none;stroke-opacity:1"
       d="M 8.986708,5.9999975 A 0.97215449,0.97896762 0 0 0 8.0145548,6.9789651 0.97215449,0.97896762 0 0 0 8.986708,7.9579327 0.97215449,0.97896762 0 0 0 9.958862,6.9789651 0.97215449,0.97896762 0 0 0 8.986708,5.9999975 Z M 8.500631,8.4474165 7.4999975,9.2237073 V 9.9999994 H 10.5 V 9.2237073 L 9.501265,8.4474165 Z" />
    <rect
       style="fill:#000000;fill-opacity:1;fill-rule:evenodd;stroke:#000000;stroke-width:1.5;stroke-linecap:square;stroke-linejoin:miter;stroke-dasharray:none;stroke-opacity:1;paint-order:normal"
       id="rect5"
       width="3.5"
       x="12.71875"
       y="6.5202403"
       height="0.5" />
    <rect
       style="fill:#000000;fill-opacity:1;fill-rule:evenodd;stroke:#000000;stroke-width:1.5;stroke-linecap:square;stroke-linejoin:miter;stroke-dasharray:none;stroke-opacity:1;paint-order:normal"
       id="rect5-4"
       width="3.5"
       x="12.71875"
       y="10.02024"
       height="0.5" />
    <rect
       style="fill:#000000;fill-opacity:1;fill-rule:evenodd;stroke:#000000;stroke-width:1.50001;stroke-linecap:square;stroke-linejoin:miter;stroke-dasharray:none;stroke-opacity:1;paint-order:normal"
       id="rect5-1"
       width="8.5"
       x="7.75"
       y="13.520245"
       height="0.5" />
    <path
       id="rect5-1-5"
       style="fill:#000000;fill-opacity:1;fill-rule:evenodd;stroke:#000000;stroke-width:0.75;stroke-linecap:square;stroke-linejoin:miter;stroke-dasharray:none;stroke-opacity:1;paint-order:normal"
       d="m 10.217365,16.044617 -1.893026,1.818471 -0.9232329,-0.8877 -0.3152117,0.30308 0.9232329,0.8877 0.3077437,0.295901 0.3152136,-0.30308 1.8930244,-1.818472 z" />
    <path
       style="font-size:8px;font-family:'Times New Roman';-inkscape-font-specification:'Times New Roman, Normal';fill-rule:evenodd;stroke:#000000;stroke-width:0.5;stroke-linecap:square;stroke-dasharray:none"
       d="m 13.410785,15.884275 0.05449,0.890234 h -0.05449 q -0.108963,-0.399737 -0.311074,-0.575466 -0.202112,-0.17573 -0.485067,-0.17573 -0.23726,0 -0.428825,0.133247 -0.191566,0.131314 -0.302288,0.420978 -0.108964,0.289664 -0.108964,0.720298 0,0.35532 0.103693,0.616019 0.103694,0.260697 0.311074,0.399736 0.209141,0.139039 0.476279,0.139039 0.231987,0 0.409493,-0.108142 0.177507,-0.110072 0.390163,-0.434495 l 0.05449,0.03862 q -0.179265,0.349528 -0.418282,0.511739 -0.239019,0.162212 -0.567668,0.162212 -0.592272,0 -0.917406,-0.482773 -0.242533,-0.359184 -0.242533,-0.84582 0,-0.392012 0.159931,-0.720297 0.159932,-0.328287 0.439372,-0.507879 0.281197,-0.181522 0.613361,-0.181522 0.25835,0 0.509671,0.139038 0.07382,0.04248 0.105449,0.04248 0.04745,0 0.0826,-0.03669 0.04569,-0.05215 0.06502,-0.144832 z"
       id="text7"
       aria-label="C" />
    <path
       d="m 17.145833,15.886578 v 0.07298 q -0.138927,0.02563 -0.210321,0.09074 -0.102266,0.09665 -0.181378,0.295862 l -0.912678,2.276163 h -0.07139 l -0.980211,-2.305754 q -0.07525,-0.177518 -0.106126,-0.216966 -0.04824,-0.06114 -0.119632,-0.09467 -0.06946,-0.0355 -0.189097,-0.04537 v -0.07297 h 1.068973 v 0.07297 q -0.181379,0.01776 -0.235406,0.06312 -0.05403,0.04537 -0.05403,0.116373 0,0.09862 0.08876,0.307696 l 0.665695,1.568071 0.617456,-1.548346 q 0.09069,-0.2288 0.09069,-0.31756 0,-0.0572 -0.05596,-0.108482 -0.05596,-0.05325 -0.189097,-0.07496 -0.0096,-0.002 -0.0328,-0.0059 v -0.07299 z"
       id="text8"
       style="font-size:8px;font-family:'Times New Roman';-inkscape-font-specification:'Times New Roman, Normal';fill-rule:evenodd;stroke:#000000;stroke-width:0.5;stroke-linecap:square;stroke-dasharray:none"
       aria-label="V" />
  </g>
  <metadata
     id="metadata4">
    <rdf:RDF>
      <cc:Work
         rdf:about="">
        <dc:creator>
          <cc:Agent>
            <dc:title>Jacob Pell</dc:title>
          </cc:Agent>
        </dc:creator>
        <dc:rights>
          <cc:Agent>
            <dc:title>Sylphaxiom Creative/Jacob Pell</dc:title>
          </cc:Agent>
        </dc:rights>
        <dc:publisher>
          <cc:Agent>
            <dc:title>Sylphaxiom Creative/Jacob Pell</dc:title>
          </cc:Agent>
        </dc:publisher>
        <dc:subject>
          <rdf:Bag>
            <rdf:li>icon</rdf:li>
          </rdf:Bag>
        </dc:subject>
        <cc:license
           rdf:resource="http://creativecommons.org/licenses/by-sa/4.0/" />
      </cc:Work>
      <cc:License
         rdf:about="http://creativecommons.org/licenses/by-sa/4.0/">
        <cc:permits
           rdf:resource="http://creativecommons.org/ns#Reproduction" />
        <cc:permits
           rdf:resource="http://creativecommons.org/ns#Distribution" />
        <cc:requires
           rdf:resource="http://creativecommons.org/ns#Notice" />
        <cc:requires
           rdf:resource="http://creativecommons.org/ns#Attribution" />
        <cc:permits
           rdf:resource="http://creativecommons.org/ns#DerivativeWorks" />
        <cc:requires
           rdf:resource="http://creativecommons.org/ns#ShareAlike" />
      </cc:License>
    </rdf:RDF>
  </metadata>
</svg>
