<?xml version="1.0" encoding="UTF-8" standalone="no"?>
<!-- Created with Inkscape (http://www.inkscape.org/) -->

<svg
   width="500"
   height="500"
   viewBox="0 0 500 500"
   version="1.1"
   id="svg1"
   inkscape:version="1.4.2 (f4327f4, 2025-05-13)"
   sodipodi:docname="filligree.svg"
   xmlns:inkscape="http://www.inkscape.org/namespaces/inkscape"
   xmlns:sodipodi="http://sodipodi.sourceforge.net/DTD/sodipodi-0.dtd"
   xmlns="http://www.w3.org/2000/svg"
   xmlns:svg="http://www.w3.org/2000/svg">
  <sodipodi:namedview
     id="namedview1"
     pagecolor="#ffffff"
     bordercolor="#000000"
     borderopacity="0.25"
     inkscape:showpageshadow="2"
     inkscape:pageopacity="0.0"
     inkscape:pagecheckerboard="0"
     inkscape:deskcolor="#d1d1d1"
     inkscape:document-units="px"
     showgrid="true"
     inkscape:zoom="0.815"
     inkscape:cx="162.57669"
     inkscape:cy="215.33742"
     inkscape:window-width="1920"
     inkscape:window-height="1017"
     inkscape:window-x="1912"
     inkscape:window-y="-8"
     inkscape:window-maximized="1"
     inkscape:current-layer="layer1">
    <inkscape:grid
       id="grid1"
       units="px"
       originx="0"
       originy="0"
       spacingx="1"
       spacingy="1"
       empcolor="#0099e5"
       empopacity="0.30196078"
       color="#0099e5"
       opacity="0.14901961"
       empspacing="5"
       enabled="true"
       visible="true" />
  </sodipodi:namedview>
  <defs
     id="defs1">
    <inkscape:path-effect
       effect="spiro"
       id="path-effect3"
       is_visible="true"
       lpeversion="1" />
    <inkscape:path-effect
       effect="spiro"
       id="path-effect2"
       is_visible="true"
       lpeversion="1" />
    <inkscape:path-effect
       effect="spiro"
       id="path-effect1"
       is_visible="true"
       lpeversion="1" />
    <inkscape:path-effect
       effect="spiro"
       id="path-effect3-7"
       is_visible="true"
       lpeversion="1" />
    <inkscape:path-effect
       effect="spiro"
       id="path-effect3-6"
       is_visible="true"
       lpeversion="1" />
  </defs>
  <g
     inkscape:label="Layer 1"
     inkscape:groupmode="layer"
     id="layer1">
    <path
       style="fill:none;fill-rule:evenodd;stroke:#000000;stroke-width:5;stroke-linecap:round;stroke-linejoin:round;stroke-opacity:1"
       d="m 80,235 c 1.857955,3.67608 4.751512,6.82174 8.259956,8.97961 3.508443,2.15787 7.621116,3.32139 11.740044,3.32139 4.11893,0 8.2316,-1.16352 11.74004,-3.32139 3.50845,-2.15787 6.40201,-5.30353 8.25996,-8.97961 2.61312,-5.17023 3.11961,-11.31058 1.6911,-16.92476 -1.42851,-5.61419 -4.73043,-10.68685 -9.08068,-14.51243 -4.35025,-3.82557 -9.71577,-6.42631 -15.345829,-7.79091 C 91.634533,194.4073 85.744998,194.25522 80,195 69.80264,196.32198 59.882524,200.57358 52.426302,207.65443 44.97008,214.73529 40.141132,224.71827 40,235 c -0.112331,8.18356 2.694371,16.26547 7.228319,23.07918 4.533948,6.81371 10.733209,12.41269 17.564026,16.92082 14.003227,9.24171 30.714471,14.00206 47.470895,14.85169 16.75642,0.84963 33.56863,-2.09978 49.50918,-7.33413 31.8811,-10.46871 59.98493,-29.7249 88.43523,-47.51756 27.79885,-17.38524 56.66299,-33.71465 88.07912,-43.09814 31.41612,-9.38348 65.84525,-11.42631 96.71323,-0.37232 9.84278,3.52475 19.36743,8.44147 26.83277,15.76082 7.46534,7.31935 12.72448,17.25714 12.94695,27.70964 0.22018,10.34483 -4.58553,20.50681 -12.12036,27.59838 -7.53483,7.09156 -17.60085,11.214 -27.87964,12.40162 -5.71713,0.66056 -11.56289,0.44908 -17.14597,-0.94773 -5.58308,-1.39682 -10.89887,-4.00207 -15.21343,-7.8108 -4.31457,-3.80872 -7.59577,-8.84321 -9.02892,-14.41708 C 391.95826,246.25053 392.43407,240.15149 395,235 c 1.84075,-3.69558 4.72837,-6.86256 8.23875,-9.03579 3.51037,-2.17323 7.63261,-3.34597 11.76125,-3.34597 4.12864,0 8.25088,1.17274 11.76125,3.34597 3.51038,2.17323 6.398,5.34021 8.23875,9.03579"
       id="path1"
       inkscape:path-effect="#path-effect2"
       inkscape:original-d="m 80,235 c 7.361963,-0.409 31.41104,-0.2045 40,0 8.58896,0.2045 -31.002045,-30.38855 -40,-40 -8.997955,-9.61145 -30.797546,30.38855 -40,40 -9.202454,9.61145 15.589891,31.00204 24.792345,40 9.202454,8.99795 164.005625,-40.11332 185.415305,-40 21.16264,0.11201 172.31791,-35.086 184.79235,-43.47046 12.47443,-8.38446 28.53227,33.85901 39.77972,43.47046 11.24744,9.61146 -29.97955,33.04703 -40,40 -10.02045,6.95296 -33.03125,-33.04704 -39.77972,-40 -6.74846,-6.95297 30.79755,0.409 40,0"
       sodipodi:nodetypes="csssssssssc" />
    <path
       style="fill:none;fill-rule:evenodd;stroke:#000000;stroke-width:5;stroke-linecap:round;stroke-linejoin:round;stroke-opacity:1"
       d="m 175.04146,239.24502 c 0.78389,1.36 1.94114,2.50231 3.31121,3.26846 1.37008,0.76614 2.9492,1.15402 4.51832,1.10982 1.56912,-0.0442 3.1239,-0.52036 4.44868,-1.36241 1.32477,-0.84206 2.41588,-2.0477 3.12197,-3.44967 0.9975,-1.98059 1.20531,-4.32561 0.67924,-6.47991 -0.52607,-2.15429 -1.76449,-4.11153 -3.4121,-5.59582 -1.64761,-1.48429 -3.69201,-2.50295 -5.84425,-3.03736 -2.15224,-0.53441 -4.40979,-0.59317 -6.60616,-0.28709 -4.10273,0.57174 -8.04668,2.4596 -10.90823,5.45472 -2.86155,2.99513 -4.58291,7.10551 -4.49195,11.24688 0.0883,4.02258 1.85427,7.90698 4.49775,10.94028 2.64348,3.03331 6.11979,5.26066 9.81791,6.84584 9.72334,4.16786 20.66109,3.98533 31.23417,4.33808 10.40908,0.34727 21.00648,1.32979 30.58345,5.4226 3.72872,1.5935 7.31256,3.68601 10.0834,6.64659 2.77085,2.96058 4.67424,6.86769 4.66606,10.92263 -0.008,3.99934 -1.90532,7.89183 -4.83203,10.61747 -2.92672,2.72564 -6.81259,4.31973 -10.78505,4.7827 -2.25928,0.26331 -4.57014,0.17443 -6.77526,-0.38338 -2.20512,-0.5578 -4.30247,-1.59315 -6.00734,-3.09884 -1.70486,-1.5057 -3.00521,-3.48979 -3.58945,-5.68805 -0.58424,-2.19826 -0.43018,-4.60551 0.53806,-6.66371 0.75812,-1.61154 2.00473,-2.98932 3.53265,-3.90435 1.52791,-0.91503 3.33099,-1.36363 5.10955,-1.27124 1.77856,0.0924 3.52545,0.72541 4.95033,1.79383 1.42488,1.06842 2.52202,2.56795 3.10908,4.24937"
       id="path3"
       inkscape:path-effect="#path-effect3"
       inkscape:original-d="m 175.04146,239.24502 c 5.2057,0 10.19449,-0.4338 15.40018,-0.4338 5.2057,0 -9.97758,-9.97758 -15.18327,-15.40018 -5.2057,-5.4226 -10.33909,10.84519 -15.40018,16.7016 -5.06109,5.85641 9.39917,12.86963 14.31566,17.78612 4.91649,4.91649 22.91952,1.22913 31.23417,4.33808 8.31465,3.10896 18.36452,4.48268 30.58345,5.4226 12.21892,0.93992 9.90527,11.71281 14.74946,17.56922 4.84419,5.8564 -10.41139,10.19448 -15.61708,15.40017 -5.20569,5.2057 -10.55599,-10.55599 -15.83399,-15.83398 -5.27799,-5.278 11.13441,0.57841 16.70161,0.86761"
       sodipodi:nodetypes="csssssssssc" />
    <path
       style="fill:none;fill-rule:evenodd;stroke:#000000;stroke-width:5;stroke-linecap:round;stroke-linejoin:round;stroke-opacity:1"
       d="m 137.61815,213.47815 c 0.78389,1.36 1.94114,2.50231 3.31121,3.26846 1.37008,0.76614 2.9492,1.15402 4.51832,1.10982 1.56912,-0.0442 3.1239,-0.52036 4.44868,-1.36241 1.32477,-0.84206 2.41588,-2.0477 3.12197,-3.44967 0.9975,-1.98059 1.20531,-4.32561 0.67924,-6.47991 -0.52607,-2.15429 -1.76449,-4.11153 -3.4121,-5.59582 -1.64761,-1.48429 -3.69201,-2.50295 -5.84425,-3.03736 -2.15224,-0.53441 -4.40979,-0.59317 -6.60616,-0.28709 -4.10273,0.57174 -8.04668,2.4596 -10.90823,5.45472 -2.86155,2.99513 -4.58291,7.10551 -4.49195,11.24688 0.0883,4.02258 1.85427,7.90698 4.49775,10.94028 2.64348,3.03331 6.11979,5.26066 9.81791,6.84584 9.72334,4.16786 20.66109,3.98533 31.23417,4.33808 10.40908,0.34727 21.00648,1.32979 30.58345,5.4226 3.72872,1.5935 7.31256,3.68601 10.0834,6.64659 2.77085,2.96058 4.67424,6.86769 4.66606,10.92263 -0.008,3.99934 -1.90532,7.89183 -4.83203,10.61747 -2.92672,2.72564 -6.81259,4.31973 -10.78505,4.7827 -2.25928,0.26331 -4.57014,0.17443 -6.77526,-0.38338 -2.20512,-0.5578 -4.30247,-1.59315 -6.00734,-3.09884 -1.70486,-1.5057 -3.00521,-3.48979 -3.58945,-5.68805 -0.58424,-2.19826 -0.43018,-4.60551 0.53806,-6.66371 0.75812,-1.61154 2.00473,-2.98932 3.53265,-3.90435 1.52791,-0.91503 3.33099,-1.36363 5.10955,-1.27124 1.77856,0.0924 3.52545,0.72541 4.95033,1.79383 1.42488,1.06842 2.52202,2.56795 3.10908,4.24937"
       id="path3-5"
       inkscape:path-effect="#path-effect3-7"
       inkscape:original-d="m 137.61815,213.47815 c 5.2057,0 10.19449,-0.4338 15.40018,-0.4338 5.2057,0 -9.97758,-9.97758 -15.18327,-15.40018 -5.2057,-5.4226 -10.33909,10.84519 -15.40018,16.7016 -5.06109,5.85641 9.86025,12.44822 14.31566,17.78612 4.91649,5.89031 22.91952,1.87717 31.23417,4.33808 8.51188,2.51929 18.36452,4.48268 30.58345,5.4226 12.21892,0.93992 9.90527,11.71281 14.74946,17.56922 4.84419,5.8564 -10.41139,10.19448 -15.61708,15.40017 -5.20569,5.2057 -10.55599,-10.55599 -15.83399,-15.83398 -5.27799,-5.278 11.13441,0.57841 16.70161,0.86761"
       sodipodi:nodetypes="csssssssssc"
       transform="translate(98.553295,-10.565891)" />
    <path
       style="fill:none;fill-rule:evenodd;stroke:#000000;stroke-width:5;stroke-linecap:round;stroke-linejoin:round;stroke-opacity:1"
       d="m 139.45864,229.42907 c 0.78389,1.36 1.94114,2.50231 3.31121,3.26846 1.37008,0.76614 2.9492,1.15402 4.51832,1.10982 1.56912,-0.0442 3.1239,-0.52036 4.44868,-1.36241 1.32477,-0.84206 2.41588,-2.0477 3.12197,-3.44967 0.9975,-1.98059 1.20531,-4.32561 0.67924,-6.47991 -0.52607,-2.15429 -1.76449,-4.11153 -3.4121,-5.59582 -1.64761,-1.48429 -3.69201,-2.50295 -5.84425,-3.03736 -2.15224,-0.53441 -4.40979,-0.59317 -6.60616,-0.28709 -4.10273,0.57174 -8.04668,2.4596 -10.90823,5.45472 -2.86155,2.99513 -4.58291,7.10551 -4.49195,11.24688 0.0884,4.02258 1.85427,7.90698 4.49775,10.94028 2.64348,3.03331 6.11979,5.26066 9.81791,6.84584 9.72334,4.16786 20.66109,3.98533 31.23417,4.33808 10.40908,0.34727 21.00648,1.32979 30.58345,5.4226 3.72872,1.5935 7.31256,3.68601 10.0834,6.64659 2.77085,2.96058 4.67424,6.86769 4.66606,10.92263 -0.008,3.99934 -1.90532,7.89183 -4.83203,10.61747 -2.92672,2.72564 -6.81259,4.31973 -10.78505,4.7827 -2.25928,0.26331 -4.57014,0.17443 -6.77526,-0.38338 -2.20512,-0.5578 -4.30247,-1.59315 -6.00734,-3.09884 -1.70486,-1.5057 -3.00521,-3.48979 -3.58945,-5.68805 -0.58424,-2.19826 -0.43018,-4.60551 0.53806,-6.66371 0.75812,-1.61154 2.00473,-2.98932 3.53265,-3.90435 1.52791,-0.91503 3.33099,-1.36363 5.10955,-1.27124 1.77856,0.0924 3.52545,0.72541 4.95033,1.79383 1.42488,1.06842 2.52202,2.56795 3.10908,4.24937"
       id="path3-2"
       inkscape:path-effect="#path-effect3-6"
       inkscape:original-d="m 139.45864,229.42907 c 5.2057,0 10.19449,-0.4338 15.40018,-0.4338 5.2057,0 -9.97758,-9.97758 -15.18327,-15.40018 -5.2057,-5.4226 -10.33909,10.84519 -15.40018,16.7016 -5.06109,5.85641 9.39917,12.86963 14.31566,17.78612 4.91649,4.91649 22.91952,1.22913 31.23417,4.33808 8.31465,3.10896 18.36452,4.48268 30.58345,5.4226 12.21892,0.93992 9.90527,11.71281 14.74946,17.56922 4.84419,5.8564 -10.41139,10.19448 -15.61708,15.40017 -5.20569,5.2057 -10.55599,-10.55599 -15.83399,-15.83398 -5.27799,-5.278 11.13441,0.57841 16.70161,0.86761"
       sodipodi:nodetypes="csssssssssc"
       transform="translate(156.19133,-61.019879)" />
    <path
       style="fill:none;fill-rule:evenodd;stroke:#000000;stroke-width:5.07587;stroke-linecap:round;stroke-linejoin:round;stroke-opacity:1"
       d="m 235.92751,285.54488 c 0.17921,-27.05569 0.0516,-55.74451 0.23086,-82.43945"
       id="path4"
       sodipodi:nodetypes="cc" />
    <path
       style="fill:none;fill-rule:evenodd;stroke:#000000;stroke-width:5.12945;stroke-linecap:round;stroke-linejoin:round;stroke-opacity:1"
       d="M 297.17453,248.34018 295.4635,168.46964"
       id="path5" />
    <path
       style="fill:none;fill-rule:evenodd;stroke:#000000;stroke-width:5;stroke-linecap:round;stroke-linejoin:round;stroke-opacity:1"
       d="m 435.11499,234.96933 c -12.25096,-24.83605 -62.07201,-9.13067 -73.34955,-5.41621"
       id="path6"
       sodipodi:nodetypes="cc" />
    <path
       style="fill:none;fill-rule:evenodd;stroke:#000000;stroke-width:5;stroke-linecap:round;stroke-linejoin:round;stroke-opacity:1"
       d="m 80.06135,235.1227 c 19.579744,34.10259 75.67704,-5.9259 89.57055,-10.58282"
       id="path7"
       sodipodi:nodetypes="cc" />
    <path
       style="fill:none;fill-rule:evenodd;stroke:#000000;stroke-width:5;stroke-linecap:round;stroke-linejoin:round;stroke-opacity:1"
       d="M 349.38651,208.89571 243.86503,207.36197"
       id="path8"
       sodipodi:nodetypes="cc" />
    <path
       style="fill:none;fill-rule:evenodd;stroke:#000000;stroke-width:5;stroke-linecap:round;stroke-linejoin:round;stroke-opacity:1"
       d="m 287.73006,243.40491 -104.29448,0.15337"
       id="path9"
       sodipodi:nodetypes="cc" />
    <path
       style="fill:none;fill-rule:evenodd;stroke:#000000;stroke-width:5;stroke-linecap:round;stroke-linejoin:round;stroke-opacity:1"
       d="m 166.78396,225.55635 c 17.63726,-8.11374 45.13171,-23.63965 59.47838,-33.6679 m 77.95561,69.95141 c 14.26302,-10.83859 48.80365,-30.03326 58.83404,-32.54166"
       id="path10"
       sodipodi:nodetypes="cccc" />
    <path
       style="fill:none;fill-rule:evenodd;stroke:#000000;stroke-width:5;stroke-linecap:round;stroke-linejoin:round;stroke-opacity:1"
       d="M 250.58756,287.89051 281.05325,165.49769"
       id="path11"
       sodipodi:nodetypes="cc" />
    <path
       style="fill:none;fill-rule:evenodd;stroke:#000000;stroke-width:5;stroke-linecap:round;stroke-linejoin:round;stroke-opacity:1"
       d="M 280.34831,256.05508 251.39164,194.02055"
       id="path12"
       sodipodi:nodetypes="cc" />
    <path
       style="fill:none;fill-rule:evenodd;stroke:#000000;stroke-width:4.99876;stroke-linecap:round;stroke-linejoin:round;stroke-opacity:1"
       d="m 232.95481,300.84574 33.1544,-0.0892 0.42381,-148.42694 32.57748,-0.063"
       id="path13"
       sodipodi:nodetypes="cccc" />
  </g>
</svg>
