<?xml version="1.0" encoding="UTF-8" standalone="no"?>
<!-- Created with Inkscape (http://www.inkscape.org/) -->

<svg
   width="512"
   height="512"
   viewBox="0 0 512 512"
   version="1.1"
   id="svg1"
   inkscape:version="1.4.2 (f4327f4, 2025-05-13)"
   sodipodi:docname="sylphaxiom_web.svg"
   xmlns:inkscape="http://www.inkscape.org/namespaces/inkscape"
   xmlns:sodipodi="http://sodipodi.sourceforge.net/DTD/sodipodi-0.dtd"
   xmlns="http://www.w3.org/2000/svg"
   xmlns:svg="http://www.w3.org/2000/svg">
  <sodipodi:namedview
     id="namedview1"
     pagecolor="#ffffff"
     bordercolor="#000000"
     borderopacity="0.25"
     inkscape:showpageshadow="2"
     inkscape:pageopacity="0.0"
     inkscape:pagecheckerboard="0"
     inkscape:deskcolor="#d1d1d1"
     inkscape:document-units="px"
     showgrid="true"
     inkscape:zoom="1.1255704"
     inkscape:cx="235.43619"
     inkscape:cy="297.18266"
     inkscape:window-width="1920"
     inkscape:window-height="1017"
     inkscape:window-x="-8"
     inkscape:window-y="-8"
     inkscape:window-maximized="1"
     inkscape:current-layer="layer1">
    <inkscape:grid
       id="grid1"
       units="px"
       originx="0"
       originy="0"
       spacingx="1"
       spacingy="1"
       empcolor="#0099e5"
       empopacity="0.30196078"
       color="#0099e5"
       opacity="0.14901961"
       empspacing="5"
       enabled="true"
       visible="true" />
  </sodipodi:namedview>
  <defs
     id="defs1" />
  <g
     inkscape:label="Layer 1"
     inkscape:groupmode="layer"
     id="layer1">
    <ellipse
       style="fill:none;stroke:#000000;stroke-width:5;stroke-dasharray:none;stroke-opacity:1"
       id="path5"
       cx="251.91658"
       cy="256.62823"
       rx="114.38404"
       ry="166.22836" />
    <path
       style="fill:#000000;fill-opacity:1;stroke:#000000;stroke-width:3.872;stroke-dasharray:none;stroke-opacity:1"
       d="M 365.62455,239.35215 C 379.16456,400.89532 402.69424,461.56875 255.05767,461.74234 102.96641,461.1076 125.17475,402.7393 138.20859,241.23681 c 17.84575,112.9822 80.07741,175.47023 119.36196,81.66872 52.98236,94.82552 92.03247,29.62826 108.054,-83.55338 z"
       id="path9"
       sodipodi:nodetypes="ccccc" />
    <ellipse
       style="fill:none;stroke:#000000;stroke-width:5;stroke-dasharray:none;stroke-opacity:1"
       id="path6"
       cx="204.48589"
       cy="216.10797"
       rx="29.777"
       ry="16.333742" />
    <ellipse
       style="fill:none;stroke:#000000;stroke-width:5;stroke-dasharray:none;stroke-opacity:1"
       id="path6-1"
       cx="307.54611"
       cy="216.38509"
       rx="29.777"
       ry="16.333742" />
    <path
       style="fill:none;stroke:#000000;stroke-width:5;stroke-dasharray:none;stroke-opacity:1"
       id="path7"
       sodipodi:type="arc"
       sodipodi:cx="256.62823"
       sodipodi:cy="215.47975"
       sodipodi:rx="21.045399"
       sodipodi:ry="5.0257668"
       sodipodi:start="3.1415927"
       sodipodi:end="6.2831853"
       sodipodi:open="true"
       sodipodi:arc-type="arc"
       d="m 235.58284,215.47975 a 21.045399,5.0257668 0 0 1 21.04539,-5.02577 21.045399,5.0257668 0 0 1 21.0454,5.02577" />
    <path
       style="fill:#000000;fill-opacity:1;stroke:#000000;stroke-width:3.872;stroke-dasharray:none;stroke-opacity:1"
       d="m 311.59754,322.90552 c -1.22422,-41.98365 -15.75798,-52.37902 -53.39877,-50.88589 -37.89057,-1.65069 -52.77313,12.33328 -52.14233,50.88588 10.27258,-16.3268 22.58675,-35.85486 54.02699,-32.66748 28.50575,-2.22083 41.24384,15.06919 51.51411,32.66749 z"
       id="path10"
       sodipodi:nodetypes="ccccc" />
    <path
       style="fill:none;fill-opacity:1;stroke:#000000;stroke-width:5;stroke-dasharray:none;stroke-opacity:1"
       d="m 256.94233,210.45399 1.88466,32.66749 c -4.94183,-1.72544 -20.85503,4.09676 -23.87238,13.82086 -7.79808,20.5134 18.85119,-0.43255 34.55213,8.16686"
       id="path351"
       sodipodi:nodetypes="cccc" />
    <path
       style="fill:#000000;fill-opacity:1;stroke:#000000;stroke-width:3.872;stroke-dasharray:none;stroke-opacity:1"
       d="m 234.32638,179.04295 c -0.38742,-8.10477 -12.33306,-22.19773 -24.23414,-19.22349 -14.21364,3.55219 -33.26615,15.12688 -35.44684,19.85171 15.25048,-1.60073 25.15996,-9.43886 34.26756,-10.66221 9.78373,-1.31418 17.97712,5.19084 25.41342,10.03399 z"
       id="path352"
       sodipodi:nodetypes="cscsc" />
    <path
       d="m 334.8908,197.23558 c 0.36144,-7.24685 -12.7695,-15.69039 -28.63168,-14.19771 -14.58635,1.37263 -25.09929,9.47289 -27.27998,14.19772 15.8787,-4.74184 19.75299,-7.34956 28.61357,-7.52111 9.94232,-0.1925 16.68071,4.90684 27.29809,7.5211 z"
       style="fill:#000000;fill-opacity:1;stroke:#000000;stroke-width:3.872;stroke-dasharray:none;stroke-opacity:1"
       id="path1"
       sodipodi:nodetypes="cscsc" />
    <path
       style="fill:none;fill-opacity:1;stroke:#000000;stroke-width:5;stroke-dasharray:none;stroke-opacity:1"
       d="m 219.24908,306.57179 c 12.19285,6.8635 27.85808,13.39926 39.57792,8.79508 17.52058,5.07038 31.02234,-0.95156 40.20613,-7.53866 -9.17393,-3.80049 -13.64451,-4.79258 -24.34356,-5.18281 l -16.33374,2.98405 -14.60614,-3.45522 c -9.97755,-0.0406 -14.93182,0.92316 -24.50061,4.39756 z"
       id="path353"
       sodipodi:nodetypes="ccccccc" />
    <path
       style="fill:none;fill-opacity:1;stroke:#000000;stroke-width:5;stroke-dasharray:none;stroke-opacity:1"
       d="m 229.92883,115.59264 c 16.07451,-11.79143 35.29792,-6.26391 54.65522,0"
       id="path357"
       sodipodi:nodetypes="cc" />
    <path
       style="fill:none;fill-opacity:1;stroke:#000000;stroke-width:5;stroke-dasharray:none;stroke-opacity:1"
       d="m 245.00613,133.18282 c 7.596,-11.80834 29.5711,-2.20863 42.71902,3.76933"
       id="path358"
       sodipodi:nodetypes="cc" />
    <rect
       style="fill:none;fill-opacity:1;stroke:#000000;stroke-width:5;stroke-dasharray:none;stroke-opacity:1"
       id="rect358"
       width="446.16098"
       height="446.16098"
       x="30.190416"
       y="29.301979"
       ry="22.880051" />
    <path
       style="fill:none;fill-opacity:1;stroke:#000000;stroke-width:5;stroke-dasharray:none;stroke-opacity:1"
       d="M 30.206908,69.2982 H 479.75677"
       id="path359" />
    <circle
       style="fill:none;fill-opacity:1;stroke:#000000;stroke-width:5;stroke-dasharray:none;stroke-opacity:1"
       id="path360"
       cx="56.415844"
       cy="48.419895"
       r="10" />
    <circle
       style="fill:none;fill-opacity:1;stroke:#000000;stroke-width:5;stroke-dasharray:none;stroke-opacity:1"
       id="path360-2"
       cx="85.720985"
       cy="48.047562"
       r="10" />
    <circle
       style="fill:none;fill-opacity:1;stroke:#000000;stroke-width:5;stroke-dasharray:none;stroke-opacity:1"
       id="path360-5"
       cx="118.05973"
       cy="47.82444"
       r="10" />
  </g>
</svg>
